<?xml version='1.0' encoding='UTF-8'?>
<svg width="82mm" height="82mm" version="1.1" viewBox="0 0 82 82" xmlns="http://www.w3.org/2000/svg"><path d="M4,4H6V6H4zM6,4H8V6H6zM8,4H10V6H8zM10,4H12V6H10zM12,4H14V6H12zM14,4H16V6H14zM16,4H18V6H16zM20,4H22V6H20zM22,4H24V6H22zM24,4H26V6H24zM40,4H42V6H40zM42,4H44V6H42zM44,4H46V6H44zM48,4H50V6H48zM52,4H54V6H52zM54,4H56V6H54zM56,4H58V6H56zM60,4H62V6H60zM64,4H66V6H64zM66,4H68V6H66zM68,4H70V6H68zM70,4H72V6H70zM72,4H74V6H72zM74,4H76V6H74zM76,4H78V6H76zM4,6H6V8H4zM16,6H18V8H16zM20,6H22V8H20zM24,6H26V8H24zM26,6H28V8H26zM28,6H30V8H28zM30,6H32V8H30zM32,6H34V8H32zM34,6H36V8H34zM44,6H46V8H44zM46,6H48V8H46zM48,6H50V8H48zM54,6H56V8H54zM56,6H58V8H56zM58,6H60V8H58zM60,6H62V8H60zM64,6H66V8H64zM76,6H78V8H76zM4,8H6V10H4zM8,8H10V10H8zM10,8H12V10H10zM12,8H14V10H12zM16,8H18V10H16zM20,8H22V10H20zM22,8H24V10H22zM26,8H28V10H26zM34,8H36V10H34zM44,8H46V10H44zM46,8H48V10H46zM48,8H50V10H48zM50,8H52V10H50zM60,8H62V10H60zM64,8H66V10H64zM68,8H70V10H68zM70,8H72V10H70zM72,8H74V10H72zM76,8H78V10H76zM4,10H6V12H4zM8,10H10V12H8zM10,10H12V12H10zM12,10H14V12H12zM16,10H18V12H16zM26,10H28V12H26zM30,10H32V12H30zM32,10H34V12H32zM36,10H38V12H36zM42,10H44V12H42zM46,10H48V12H46zM50,10H52V12H50zM54,10H56V12H54zM56,10H58V12H56zM64,10H66V12H64zM68,10H70V12H68zM70,10H72V12H70zM72,10H74V12H72zM76,10H78V12H76zM4,12H6V14H4zM8,12H10V14H8zM10,12H12V14H10zM12,12H14V14H12zM16,12H18V14H16zM22,12H24V14H22zM24,12H26V14H24zM30,12H32V14H30zM34,12H36V14H34zM36,12H38V14H36zM38,12H40V14H38zM42,12H44V14H42zM46,12H48V14H46zM48,12H50V14H48zM50,12H52V14H50zM52,12H54V14H52zM54,12H56V14H54zM64,12H66V14H64zM68,12H70V14H68zM70,12H72V14H70zM72,12H74V14H72zM76,12H78V14H76zM4,14H6V16H4zM16,14H18V16H16zM20,14H22V16H20zM22,14H24V16H22zM24,14H26V16H24zM26,14H28V16H26zM28,14H30V16H28zM30,14H32V16H30zM32,14H34V16H32zM34,14H36V16H34zM36,14H38V16H36zM38,14H40V16H38zM46,14H48V16H46zM48,14H50V16H48zM54,14H56V16H54zM56,14H58V16H56zM58,14H60V16H58zM60,14H62V16H60zM64,14H66V16H64zM76,14H78V16H76zM4,16H6V18H4zM6,16H8V18H6zM8,16H10V18H8zM10,16H12V18H10zM12,16H14V18H12zM14,16H16V18H14zM16,16H18V18H16zM20,16H22V18H20zM24,16H26V18H24zM28,16H30V18H28zM32,16H34V18H32zM36,16H38V18H36zM40,16H42V18H40zM44,16H46V18H44zM48,16H50V18H48zM52,16H54V18H52zM56,16H58V18H56zM60,16H62V18H60zM64,16H66V18H64zM66,16H68V18H66zM68,16H70V18H68zM70,16H72V18H70zM72,16H74V18H72zM74,16H76V18H74zM76,16H78V18H76zM20,18H22V20H20zM24,18H26V20H24zM28,18H30V20H28zM32,18H34V20H32zM34,18H36V20H34zM36,18H38V20H36zM38,18H40V20H38zM40,18H42V20H40zM42,18H44V20H42zM46,18H48V20H46zM48,18H50V20H48zM54,18H56V20H54zM60,18H62V20H60zM8,20H10V22H8zM10,20H12V22H10zM12,20H14V22H12zM16,20H18V22H16zM20,20H22V22H20zM22,20H24V22H22zM26,20H28V22H26zM28,20H30V22H28zM38,20H40V22H38zM40,20H42V22H40zM42,20H44V22H42zM46,20H48V22H46zM50,20H52V22H50zM56,20H58V22H56zM62,20H64V22H62zM64,20H66V22H64zM66,20H68V22H66zM72,20H74V22H72zM74,20H76V22H74zM76,20H78V22H76zM4,22H6V24H4zM8,22H10V24H8zM10,22H12V24H10zM12,22H14V24H12zM18,22H20V24H18zM20,22H22V24H20zM24,22H26V24H24zM28,22H30V24H28zM30,22H32V24H30zM34,22H36V24H34zM40,22H42V24H40zM42,22H44V24H42zM46,22H48V24H46zM48,22H50V24H48zM50,22H52V24H50zM54,22H56V24H54zM58,22H60V24H58zM66,22H68V24H66zM70,22H72V24H70zM72,22H74V24H72zM6,24H8V26H6zM10,24H12V26H10zM12,24H14V26H12zM14,24H16V26H14zM16,24H18V26H16zM18,24H20V26H18zM20,24H22V26H20zM22,24H24V26H22zM32,24H34V26H32zM34,24H36V26H34zM36,24H38V26H36zM38,24H40V26H38zM42,24H44V26H42zM44,24H46V26H44zM48,24H50V26H48zM54,24H56V26H54zM56,24H58V26H56zM58,24H60V26H58zM64,24H66V26H64zM68,24H70V26H68zM74,24H76V26H74zM76,24H78V26H76zM6,26H8V28H6zM8,26H10V28H8zM10,26H12V28H10zM14,26H16V28H14zM18,26H20V28H18zM22,26H24V28H22zM24,26H26V28H24zM42,26H44V28H42zM48,26H50V28H48zM52,26H54V28H52zM56,26H58V28H56zM58,26H60V28H58zM64,26H66V28H64zM66,26H68V28H66zM68,26H70V28H68zM74,26H76V28H74zM12,28H14V30H12zM14,28H16V30H14zM16,28H18V30H16zM22,28H24V30H22zM26,28H28V30H26zM28,28H30V30H28zM30,28H32V30H30zM36,28H38V30H36zM38,28H40V30H38zM46,28H48V30H46zM48,28H50V30H48zM50,28H52V30H50zM52,28H54V30H52zM54,28H56V30H54zM56,28H58V30H56zM58,28H60V30H58zM62,28H64V30H62zM64,28H66V30H64zM68,28H70V30H68zM70,28H72V30H70zM72,28H74V30H72zM74,28H76V30H74zM76,28H78V30H76zM10,30H12V32H10zM14,30H16V32H14zM18,30H20V32H18zM22,30H24V32H22zM30,30H32V32H30zM32,30H34V32H32zM34,30H36V32H34zM36,30H38V32H36zM38,30H40V32H38zM40,30H42V32H40zM46,30H48V32H46zM50,30H52V32H50zM62,30H64V32H62zM66,30H68V32H66zM70,30H72V32H70zM72,30H74V32H72zM6,32H8V34H6zM10,32H12V34H10zM16,32H18V34H16zM20,32H22V34H20zM26,32H28V34H26zM30,32H32V34H30zM42,32H44V34H42zM44,32H46V34H44zM48,32H50V34H48zM50,32H52V34H50zM54,32H56V34H54zM56,32H58V34H56zM58,32H60V34H58zM60,32H62V34H60zM64,32H66V34H64zM70,32H72V34H70zM74,32H76V34H74zM76,32H78V34H76zM4,34H6V36H4zM8,34H10V36H8zM14,34H16V36H14zM22,34H24V36H22zM28,34H30V36H28zM34,34H36V36H34zM36,34H38V36H36zM40,34H42V36H40zM42,34H44V36H42zM44,34H46V36H44zM46,34H48V36H46zM48,34H50V36H48zM50,34H52V36H50zM56,34H58V36H56zM60,34H62V36H60zM62,34H64V36H62zM68,34H70V36H68zM74,34H76V36H74zM76,34H78V36H76zM8,36H10V38H8zM12,36H14V38H12zM14,36H16V38H14zM16,36H18V38H16zM20,36H22V38H20zM22,36H24V38H22zM28,36H30V38H28zM34,36H36V38H34zM40,36H42V38H40zM48,36H50V38H48zM50,36H52V38H50zM52,36H54V38H52zM54,36H56V38H54zM56,36H58V38H56zM58,36H60V38H58zM64,36H66V38H64zM66,36H68V38H66zM68,36H70V38H68zM72,36H74V38H72zM76,36H78V38H76zM10,38H12V40H10zM22,38H24V40H22zM28,38H30V40H28zM34,38H36V40H34zM38,38H40V40H38zM48,38H50V40H48zM54,38H56V40H54zM60,38H62V40H60zM66,38H68V40H66zM6,40H8V42H6zM12,40H14V42H12zM14,40H16V42H14zM16,40H18V42H16zM20,40H22V42H20zM26,40H28V42H26zM28,40H30V42H28zM30,40H32V42H30zM36,40H38V42H36zM42,40H44V42H42zM44,40H46V42H44zM46,40H48V42H46zM48,40H50V42H48zM54,40H56V42H54zM56,40H58V42H56zM58,40H60V42H58zM66,40H68V42H66zM68,40H70V42H68zM70,40H72V42H70zM74,40H76V42H74zM76,40H78V42H76zM4,42H6V44H4zM6,42H8V44H6zM12,42H14V44H12zM14,42H16V44H14zM18,42H20V44H18zM22,42H24V44H22zM24,42H26V44H24zM30,42H32V44H30zM34,42H36V44H34zM36,42H38V44H36zM38,42H40V44H38zM40,42H42V44H40zM42,42H44V44H42zM48,42H50V44H48zM50,42H52V44H50zM52,42H54V44H52zM58,42H60V44H58zM62,42H64V44H62zM64,42H66V44H64zM66,42H68V44H66zM76,42H78V44H76zM4,44H6V46H4zM10,44H12V46H10zM12,44H14V46H12zM14,44H16V46H14zM16,44H18V46H16zM18,44H20V46H18zM24,44H26V46H24zM26,44H28V46H26zM32,44H34V46H32zM36,44H38V46H36zM42,44H44V46H42zM46,44H48V46H46zM48,44H50V46H48zM50,44H52V46H50zM52,44H54V46H52zM54,44H56V46H54zM56,44H58V46H56zM58,44H60V46H58zM62,44H64V46H62zM64,44H66V46H64zM66,44H68V46H66zM68,44H70V46H68zM70,44H72V46H70zM72,44H74V46H72zM6,46H8V48H6zM8,46H10V48H8zM22,46H24V48H22zM24,46H26V48H24zM30,46H32V48H30zM32,46H34V48H32zM34,46H36V48H34zM38,46H40V48H38zM40,46H42V48H40zM42,46H44V48H42zM48,46H50V48H48zM50,46H52V48H50zM66,46H68V48H66zM70,46H72V48H70zM8,48H10V50H8zM10,48H12V50H10zM14,48H16V50H14zM16,48H18V50H16zM18,48H20V50H18zM22,48H24V50H22zM30,48H32V50H30zM36,48H38V50H36zM38,48H40V50H38zM40,48H42V50H40zM42,48H44V50H42zM44,48H46V50H44zM46,48H48V50H46zM52,48H54V50H52zM58,48H60V50H58zM64,48H66V50H64zM74,48H76V50H74zM76,48H78V50H76zM4,50H6V52H4zM6,50H8V52H6zM10,50H12V52H10zM12,50H14V52H12zM18,50H20V52H18zM22,50H24V52H22zM26,50H28V52H26zM32,50H34V52H32zM36,50H38V52H36zM38,50H40V52H38zM40,50H42V52H40zM42,50H44V52H42zM44,50H46V52H44zM46,50H48V52H46zM52,50H54V52H52zM56,50H58V52H56zM62,50H64V52H62zM64,50H66V52H64zM66,50H68V52H66zM76,50H78V52H76zM4,52H6V54H4zM6,52H8V54H6zM8,52H10V54H8zM12,52H14V54H12zM14,52H16V54H14zM16,52H18V54H16zM18,52H20V54H18zM22,52H24V54H22zM34,52H36V54H34zM38,52H40V54H38zM40,52H42V54H40zM42,52H44V54H42zM48,52H50V54H48zM60,52H62V54H60zM62,52H64V54H62zM64,52H66V54H64zM68,52H70V54H68zM72,52H74V54H72zM74,52H76V54H74zM4,54H6V56H4zM8,54H10V56H8zM18,54H20V56H18zM22,54H24V56H22zM30,54H32V56H30zM34,54H36V56H34zM36,54H38V56H36zM44,54H46V56H44zM46,54H48V56H46zM48,54H50V56H48zM52,54H54V56H52zM54,54H56V56H54zM56,54H58V56H56zM60,54H62V56H60zM62,54H64V56H62zM74,54H76V56H74zM4,56H6V58H4zM8,56H10V58H8zM12,56H14V58H12zM16,56H18V58H16zM18,56H20V58H18zM20,56H22V58H20zM28,56H30V58H28zM30,56H32V58H30zM32,56H34V58H32zM34,56H36V58H34zM46,56H48V58H46zM56,56H58V58H56zM58,56H60V58H58zM64,56H66V58H64zM66,56H68V58H66zM70,56H72V58H70zM72,56H74V58H72zM74,56H76V58H74zM76,56H78V58H76zM4,58H6V60H4zM8,58H10V60H8zM26,58H28V60H26zM30,58H32V60H30zM36,58H38V60H36zM40,58H42V60H40zM46,58H48V60H46zM52,58H54V60H52zM56,58H58V60H56zM58,58H60V60H58zM62,58H64V60H62zM68,58H70V60H68zM4,60H6V62H4zM10,60H12V62H10zM12,60H14V62H12zM16,60H18V62H16zM20,60H22V62H20zM24,60H26V62H24zM26,60H28V62H26zM28,60H30V62H28zM30,60H32V62H30zM32,60H34V62H32zM34,60H36V62H34zM38,60H40V62H38zM46,60H48V62H46zM48,60H50V62H48zM52,60H54V62H52zM54,60H56V62H54zM56,60H58V62H56zM58,60H60V62H58zM60,60H62V62H60zM62,60H64V62H62zM64,60H66V62H64zM66,60H68V62H66zM68,60H70V62H68zM72,60H74V62H72zM76,60H78V62H76zM20,62H22V64H20zM26,62H28V64H26zM28,62H30V64H28zM32,62H34V64H32zM34,62H36V64H34zM38,62H40V64H38zM40,62H42V64H40zM44,62H46V64H44zM48,62H50V64H48zM50,62H52V64H50zM58,62H60V64H58zM60,62H62V64H60zM68,62H70V64H68zM4,64H6V66H4zM6,64H8V66H6zM8,64H10V66H8zM10,64H12V66H10zM12,64H14V66H12zM14,64H16V66H14zM16,64H18V66H16zM22,64H24V66H22zM34,64H36V66H34zM40,64H42V66H40zM44,64H46V66H44zM46,64H48V66H46zM52,64H54V66H52zM56,64H58V66H56zM60,64H62V66H60zM64,64H66V66H64zM68,64H70V66H68zM70,64H72V66H70zM74,64H76V66H74zM76,64H78V66H76zM4,66H6V68H4zM16,66H18V68H16zM22,66H24V68H22zM28,66H30V68H28zM32,66H34V68H32zM34,66H36V68H34zM38,66H40V68H38zM40,66H42V68H40zM42,66H44V68H42zM44,66H46V68H44zM48,66H50V68H48zM56,66H58V68H56zM60,66H62V68H60zM68,66H70V68H68zM74,66H76V68H74zM76,66H78V68H76zM4,68H6V70H4zM8,68H10V70H8zM10,68H12V70H10zM12,68H14V70H12zM16,68H18V70H16zM20,68H22V70H20zM26,68H28V70H26zM28,68H30V70H28zM30,68H32V70H30zM32,68H34V70H32zM34,68H36V70H34zM36,68H38V70H36zM40,68H42V70H40zM42,68H44V70H42zM46,68H48V70H46zM48,68H50V70H48zM52,68H54V70H52zM54,68H56V70H54zM56,68H58V70H56zM58,68H60V70H58zM60,68H62V70H60zM62,68H64V70H62zM64,68H66V70H64zM66,68H68V70H66zM68,68H70V70H68zM72,68H74V70H72zM74,68H76V70H74zM76,68H78V70H76zM4,70H6V72H4zM8,70H10V72H8zM10,70H12V72H10zM12,70H14V72H12zM16,70H18V72H16zM20,70H22V72H20zM24,70H26V72H24zM26,70H28V72H26zM30,70H32V72H30zM38,70H40V72H38zM42,70H44V72H42zM44,70H46V72H44zM56,70H58V72H56zM58,70H60V72H58zM60,70H62V72H60zM64,70H66V72H64zM68,70H70V72H68zM72,70H74V72H72zM4,72H6V74H4zM8,72H10V74H8zM10,72H12V74H10zM12,72H14V74H12zM16,72H18V74H16zM20,72H22V74H20zM26,72H28V74H26zM28,72H30V74H28zM36,72H38V74H36zM46,72H48V74H46zM48,72H50V74H48zM50,72H52V74H50zM52,72H54V74H52zM56,72H58V74H56zM60,72H62V74H60zM62,72H64V74H62zM66,72H68V74H66zM72,72H74V74H72zM76,72H78V74H76zM4,74H6V76H4zM16,74H18V76H16zM22,74H24V76H22zM26,74H28V76H26zM28,74H30V76H28zM30,74H32V76H30zM38,74H40V76H38zM44,74H46V76H44zM48,74H50V76H48zM50,74H52V76H50zM56,74H58V76H56zM60,74H62V76H60zM62,74H64V76H62zM66,74H68V76H66zM68,74H70V76H68zM76,74H78V76H76zM4,76H6V78H4zM6,76H8V78H6zM8,76H10V78H8zM10,76H12V78H10zM12,76H14V78H12zM14,76H16V78H14zM16,76H18V78H16zM26,76H28V78H26zM30,76H32V78H30zM32,76H34V78H32zM34,76H36V78H34zM36,76H38V78H36zM38,76H40V78H38zM42,76H44V78H42zM44,76H46V78H44zM46,76H48V78H46zM48,76H50V78H48zM50,76H52V78H50zM54,76H56V78H54zM56,76H58V78H56zM62,76H64V78H62zM64,76H66V78H64zM72,76H74V78H72zM74,76H76V78H74zM76,76H78V78H76z" id="qr-path" fill="#000000" fill-opacity="1" fill-rule="nonzero" stroke="none"/></svg>